<?xml version="1.0" encoding="UTF-8"?><svg id="Layer_2" xmlns="http://www.w3.org/2000/svg" xmlns:xlink="http://www.w3.org/1999/xlink" viewBox="0 0 900 900"><defs><style>.cls-1{fill:url(#radial-gradient);}.cls-2{fill:none;}</style><radialGradient id="radial-gradient" cx="44.16" cy="514.44" fx="44.16" fy="514.44" r="825.76" gradientTransform="matrix(1, 0, 0, 1, 0, 0)" gradientUnits="userSpaceOnUse"><stop offset="0" stop-color="aqua"/><stop offset=".3" stop-color="blue"/><stop offset=".7" stop-color="#f0f"/><stop offset="1" stop-color="#c1272d"/></radialGradient></defs><g id="trans_bg"><g><circle class="cls-2" cx="450" cy="450" r="450"/><g><path class="cls-1" d="M849.95,443.72v12.56c-.23,14.61-1.25,29.21-3.09,43.72-8.69,69.54-35.65,137.22-80.85,195.3-8.84,11.36-18.38,22.35-28.62,32.91-.07,.07-.13,.14-.2,.21l-8.77,8.77c-.07,.07-.14,.13-.21,.2-1.62,1.58-3.26,3.13-4.9,4.67-9.05,8.48-18.4,16.47-28.01,23.95l-155.3-155.3v-141.42l154.55,154.55c4.19-5.88,8.15-11.88,11.86-17.98,2.23-3.66,4.38-7.36,6.43-11.09,16.47-29.87,27.47-61.95,32.98-94.77,1.39-8.27,2.44-16.59,3.13-24.93,.7-8.34,1.05-16.7,1.05-25.07,0-16.73-1.4-33.46-4.18-50-7.17-42.68-23.6-84.1-49.28-121.03-1.12-1.61-2.26-3.2-3.41-4.79-2.3-3.18-4.67-6.32-7.12-9.43-1.22-1.55-2.46-3.09-3.72-4.62-5.02-6.14-10.33-12.12-15.92-17.93-1.39-1.46-2.81-2.9-4.24-4.33-4.29-4.3-8.69-8.43-13.17-12.41-4.48-3.98-9.06-7.81-13.71-11.47-1.56-1.22-3.12-2.43-4.69-3.61-3.14-2.38-6.32-4.68-9.53-6.92-1.61-1.11-3.22-2.21-4.84-3.29-12.98-8.66-26.49-16.19-40.38-22.6-1.74-.81-3.48-1.59-5.23-2.36-13.99-6.13-28.36-11.14-42.96-15.04-1.82-.49-3.65-.95-5.49-1.41-7.32-1.8-14.71-3.33-22.13-4.58-16.54-2.78-33.27-4.18-50-4.18s-33.46,1.4-50,4.18c-6.84,1.15-13.64,2.54-20.4,4.16-2.71,.65-5.4,1.34-8.09,2.06-2.69,.73-5.37,1.49-8.04,2.29-1.34,.4-2.67,.82-4,1.24-29.29,9.23-57.44,23.08-83.31,41.52l154.55,154.55h-141.42L133.99,204.7c7.48-9.62,15.47-18.96,23.95-28.01,1.54-1.64,3.09-3.28,4.67-4.9,.06-.07,.13-.14,.2-.21l8.77-8.77c.07-.07,.14-.14,.21-.2,10.56-10.24,21.55-19.78,32.91-28.62,58.08-45.2,125.76-72.16,195.3-80.85,14.5-1.84,29.09-2.86,43.69-3.08,.11,0,.21-.01,.32-.01h11.99c.11,0,.22,.01,.32,.01,14.6,.22,29.18,1.24,43.68,3.08,85.14,10.65,167.48,48.66,232.84,114.02,65.36,65.36,103.37,147.7,114.02,232.84,1.84,14.51,2.86,29.11,3.09,43.72Z"/><path class="cls-1" d="M500,400v446.86c-12.19,1.54-24.44,2.51-36.71,2.91-2.32,.07-4.65,.13-6.97,.17-.1,0-.21,.01-.32,.01h-11.99c-.11,0-.21-.01-.32-.01-2.32-.04-4.65-.1-6.98-.17-12.27-.41-24.52-1.37-36.71-2.91V500H53.14c-1.54-12.19-2.51-24.44-2.9-36.72-.08-2.3-.14-4.59-.17-6.89,0-.13-.01-.26-.01-.39v-12c0-.13,.01-.26,.01-.39,.03-2.3,.09-4.59,.17-6.89,.39-12.28,1.36-24.53,2.9-36.72H500Z"/></g></g></g></svg>