<?xml version="1.0" encoding="UTF-8"?><svg id="Layer_2" xmlns="http://www.w3.org/2000/svg" width="170" height="110" viewBox="0 0 170 110"><defs><style>.cls-1{fill:#fff;}.cls-2{fill:#002127;}.cls-3{fill:#837b6f;}.cls-4{fill:#32564a;}.cls-5{fill:#0a0a0a;}.cls-6{fill:#f6f6e0;}.cls-7{fill:#365176;}.cls-8{fill:#c76e41;}</style></defs><g id="pallette"><g><g><rect class="cls-6" width="50" height="50"/><rect class="cls-5" y="0" width="50" height="10"/><g><path class="cls-1" d="M2.51,3.22h2.58l-.04,.53h-1.92v1.59h1.76l-.04,.53h-1.72v2.14h-.63V3.22Z"/><path class="cls-1" d="M5.7,6.13c0-1.84,1.21-2.8,2.7-2.77v.51c-1.03,0-1.88,.57-2.04,1.63h.02c.24-.29,.63-.5,1.09-.5,.83,0,1.39,.6,1.39,1.48s-.59,1.58-1.55,1.58-1.6-.78-1.6-1.94Zm2.5,.39c0-.6-.34-1.02-.92-1.02-.41,0-.83,.3-.95,.64-.03,.81,.3,1.44,.99,1.44,.52,0,.88-.43,.88-1.06Z"/><path class="cls-1" d="M9.66,3.22h2.58l-.04,.53h-1.92v1.59h1.76l-.04,.53h-1.72v2.14h-.63V3.22Z"/><path class="cls-1" d="M12.84,6.13c0-1.84,1.21-2.8,2.7-2.77v.51c-1.03,0-1.88,.57-2.04,1.63h.02c.24-.29,.63-.5,1.09-.5,.83,0,1.39,.6,1.39,1.48s-.59,1.58-1.55,1.58-1.6-.78-1.6-1.94Zm2.5,.39c0-.6-.34-1.02-.92-1.02-.41,0-.83,.3-.95,.64-.03,.81,.3,1.44,.99,1.44,.52,0,.88-.43,.88-1.06Z"/><path class="cls-1" d="M16.81,3.22h2.59l-.04,.53h-1.93v1.51h1.79l-.04,.52h-1.75v1.69h2.06l-.04,.53h-2.65V3.22Z"/><path class="cls-1" d="M20.1,5.74c0-1.47,.57-2.37,1.6-2.37s1.59,.91,1.59,2.36c0,1.49-.57,2.35-1.59,2.35s-1.59-.88-1.6-2.34Zm2.54,0c0-1.17-.29-1.86-.95-1.86s-.95,.69-.95,1.86,.26,1.83,.95,1.83,.95-.69,.95-1.83Z"/></g></g><g><rect class="cls-8" x="60" width="50" height="50"/><rect class="cls-5" x="60" width="50" height="10"/><g><path class="cls-1" d="M62.28,5.64c0-1.44,.85-2.49,2.3-2.49,.54,0,.94,.11,1.15,.21l-.1,.52c-.29-.12-.64-.2-1.03-.2-1.04,0-1.66,.76-1.66,1.95s.58,1.91,1.64,1.91c.39,0,.78-.07,1.06-.2l.08,.51c-.27,.12-.71,.22-1.23,.22-1.37,0-2.21-.97-2.21-2.43Z"/><path class="cls-1" d="M68.3,4.3l.15-.31h-2.17v-.55h2.85v.43l-1.92,4.12h-.67l1.76-3.7Z"/><path class="cls-1" d="M69.73,6.13c0-1.84,1.21-2.8,2.7-2.77v.51c-1.03,0-1.88,.57-2.04,1.63h.02c.24-.29,.63-.5,1.09-.5,.83,0,1.39,.6,1.39,1.48s-.59,1.58-1.55,1.58-1.6-.78-1.6-1.94Zm2.5,.39c0-.6-.34-1.02-.92-1.02-.41,0-.83,.3-.95,.64-.03,.81,.3,1.44,.99,1.44,.52,0,.88-.43,.88-1.06Z"/><path class="cls-1" d="M73.7,3.22h2.59l-.04,.53h-1.93v1.51h1.79l-.04,.52h-1.75v1.69h2.06l-.04,.53h-2.65V3.22Z"/><path class="cls-1" d="M78.93,6.79h-2.12v-.45l2.01-2.91h.72v2.85h.6l-.04,.51h-.57v1.21h-.61v-1.21Zm0-.51v-2.2h0l-.33,.55-1.13,1.64h1.47Z"/><path class="cls-1" d="M81.86,4.04h-.01l-.79,.41-.17-.46,1.08-.55h.53v4.57h-.62v-3.96Z"/></g></g><g><rect class="cls-4" x="60" y="60" width="50" height="50"/><rect class="cls-5" x="60" y="60" width="50" height="10"/><g><path class="cls-1" d="M62.31,67.79l.12-.49c.26,.12,.66,.26,1.09,.26,.75,0,1.02-.44,1.02-.86,0-.61-.56-.87-1.14-.87h-.38l.03-.5h.34c.49,0,1.01-.22,1.01-.76,0-.38-.27-.68-.78-.68-.38,0-.72,.13-.99,.27l-.13-.48c.29-.15,.76-.3,1.22-.3,.85,0,1.34,.47,1.34,1.09,0,.49-.29,.9-.86,1.08h0c.57,.13,1.01,.55,1.01,1.18,0,.78-.59,1.34-1.67,1.34-.48,0-.94-.13-1.2-.28Z"/><path class="cls-1" d="M65.97,67.58c1.43-1.29,2.2-1.99,2.2-2.79,0-.5-.26-.88-.88-.88-.39,0-.71,.15-1,.31l-.18-.45c.33-.22,.82-.39,1.31-.39,.92,0,1.39,.61,1.39,1.34,0,1.03-.89,1.79-1.98,2.75h2.08l-.04,.53h-2.91v-.42Z"/><path class="cls-1" d="M69.59,67.82l.12-.5c.26,.12,.65,.24,1.06,.24,.65,0,1.05-.41,1.05-.96,0-.62-.44-.95-1.34-.95-.25,0-.44,.01-.62,.03h0l.21-2.23h2.27l-.04,.54h-1.74l-.13,1.19c.13-.02,.26-.03,.39-.03,.97,0,1.65,.5,1.65,1.4s-.69,1.52-1.7,1.52c-.48,0-.92-.11-1.18-.25Z"/><path class="cls-1" d="M73.26,66.13c0-1.84,1.21-2.8,2.7-2.77v.51c-1.03,0-1.88,.57-2.04,1.63h.02c.24-.29,.63-.5,1.09-.5,.83,0,1.39,.6,1.39,1.48s-.59,1.58-1.55,1.58-1.6-.78-1.6-1.94Zm2.5,.39c0-.6-.34-1.02-.92-1.02-.41,0-.83,.3-.95,.64-.03,.81,.3,1.44,.99,1.44,.52,0,.88-.43,.88-1.06Z"/><path class="cls-1" d="M78.97,66.79h-2.12v-.45l2.01-2.91h.72v2.85h.6l-.04,.51h-.57v1.21h-.61v-1.21Zm0-.51v-2.2h0l-.33,.55-1.13,1.64h1.47Z"/><path class="cls-1" d="M82.1,63.21h.76l1.55,4.79h-.68l-.46-1.44h-1.61l-.46,1.44h-.66l1.55-4.79Zm1.04,2.84l-.45-1.52-.22-.76h-.01l-.22,.76-.46,1.52h1.35Z"/></g></g><g><rect class="cls-3" y="60" width="50" height="50"/><rect class="cls-5" y="60" width="50" height="10"/><g><path class="cls-1" d="M2.33,66.85c0-.57,.34-.98,.92-1.23h0c-.52-.25-.76-.64-.76-1.05,0-.75,.65-1.2,1.46-1.2,.85,0,1.37,.51,1.37,1.13,0,.43-.23,.81-.77,1.07h0c.57,.25,.93,.64,.93,1.18,0,.81-.69,1.31-1.59,1.31-.95,0-1.55-.52-1.55-1.22Zm2.48-.04c0-.54-.41-.81-1-.97-.5,.15-.83,.48-.83,.92s.31,.83,.91,.83c.57,0,.92-.34,.92-.79Zm-.13-2.25c0-.38-.25-.71-.78-.71s-.79,.32-.79,.71c0,.44,.36,.7,.88,.82,.37-.12,.7-.4,.7-.81Z"/><path class="cls-1" d="M6.1,67.79l.12-.49c.26,.12,.66,.26,1.09,.26,.75,0,1.02-.44,1.02-.86,0-.61-.56-.87-1.14-.87h-.38l.03-.5h.34c.49,0,1.01-.22,1.01-.76,0-.38-.27-.68-.78-.68-.38,0-.72,.13-.99,.27l-.13-.48c.29-.15,.76-.3,1.22-.3,.85,0,1.34,.47,1.34,1.09,0,.49-.29,.9-.86,1.08h0c.57,.13,1.01,.55,1.01,1.18,0,.78-.59,1.34-1.67,1.34-.48,0-.94-.13-1.2-.28Z"/><path class="cls-1" d="M11.79,64.3l.15-.31h-2.17v-.55h2.85v.43l-1.92,4.12h-.67l1.76-3.7Z"/><path class="cls-1" d="M13.42,67.99v-4.73c.35-.03,.8-.06,1.25-.06,1.02,0,1.63,.37,1.63,1.2,0,.48-.29,.89-.78,1.06h0c.47,.13,.95,.54,.95,1.2,0,1.06-.8,1.37-2.09,1.37-.39,0-.71-.02-.95-.03Zm1.27-2.73c.59,0,.96-.3,.96-.8,0-.52-.35-.76-.94-.76-.29,0-.5,.01-.67,.02v1.54h.64Zm1.11,1.37c0-.58-.46-.88-1.07-.88h-.68v1.76c.13,0,.3,.01,.49,.01,.69,0,1.26-.17,1.26-.89Z"/><path class="cls-1" d="M17.08,66.13c0-1.84,1.21-2.8,2.7-2.77v.51c-1.03,0-1.88,.57-2.04,1.63h.02c.24-.29,.63-.5,1.09-.5,.83,0,1.39,.6,1.39,1.48s-.59,1.58-1.55,1.58-1.6-.78-1.6-1.94Zm2.5,.39c0-.6-.34-1.02-.92-1.02-.41,0-.83,.3-.95,.64-.03,.81,.3,1.44,.99,1.44,.52,0,.88-.43,.88-1.06Z"/><path class="cls-1" d="M21.04,63.22h2.58l-.04,.53h-1.92v1.59h1.76l-.04,.53h-1.72v2.14h-.63v-4.78Z"/></g></g><g><rect class="cls-2" x="120" width="50" height="50"/><rect class="cls-5" x="120" y="0" width="50" height="10"/><g><path class="cls-1" d="M122.33,5.74c0-1.47,.57-2.37,1.6-2.37s1.59,.91,1.59,2.36c0,1.49-.57,2.35-1.59,2.35s-1.59-.88-1.6-2.34Zm2.54,0c0-1.17-.29-1.86-.95-1.86s-.95,.69-.95,1.86,.26,1.83,.95,1.83,.95-.69,.95-1.83Z"/><path class="cls-1" d="M126.17,5.74c0-1.47,.57-2.37,1.6-2.37s1.59,.91,1.59,2.36c0,1.49-.57,2.35-1.59,2.35s-1.59-.88-1.6-2.34Zm2.54,0c0-1.17-.29-1.86-.95-1.86s-.95,.69-.95,1.86,.26,1.83,.95,1.83,.95-.69,.95-1.83Z"/><path class="cls-1" d="M130.01,7.58c1.43-1.29,2.2-1.99,2.2-2.79,0-.5-.26-.88-.88-.88-.39,0-.71,.15-1,.31l-.18-.45c.33-.22,.82-.39,1.31-.39,.92,0,1.39,.61,1.39,1.34,0,1.03-.89,1.79-1.98,2.75h2.08l-.04,.53h-2.91v-.42Z"/><path class="cls-1" d="M134.83,4.04h-.01l-.79,.41-.17-.46,1.08-.55h.53v4.57h-.62v-3.96Z"/><path class="cls-1" d="M136.85,7.58c1.43-1.29,2.2-1.99,2.2-2.79,0-.5-.26-.88-.88-.88-.39,0-.71,.15-1,.31l-.18-.45c.33-.22,.82-.39,1.31-.39,.92,0,1.39,.61,1.39,1.34,0,1.03-.89,1.79-1.98,2.75h2.08l-.04,.53h-2.91v-.42Z"/><path class="cls-1" d="M142.52,4.3l.15-.31h-2.17v-.55h2.85v.43l-1.92,4.12h-.67l1.76-3.7Z"/></g></g><g><rect class="cls-7" x="120" y="60" width="50" height="50"/><rect class="cls-5" x="120" y="60" width="50" height="10"/><g><path class="cls-1" d="M122.31,67.79l.12-.49c.26,.12,.66,.26,1.09,.26,.75,0,1.02-.44,1.02-.86,0-.61-.56-.87-1.14-.87h-.38l.03-.5h.34c.49,0,1.01-.22,1.01-.76,0-.38-.27-.68-.78-.68-.38,0-.72,.13-.99,.27l-.13-.48c.29-.15,.76-.3,1.22-.3,.85,0,1.34,.47,1.34,1.09,0,.49-.29,.9-.86,1.08h0c.57,.13,1.01,.55,1.01,1.18,0,.78-.59,1.34-1.67,1.34-.48,0-.94-.13-1.2-.28Z"/><path class="cls-1" d="M125.96,66.13c0-1.84,1.21-2.8,2.7-2.77v.51c-1.03,0-1.88,.57-2.04,1.63h.02c.24-.29,.63-.5,1.09-.5,.83,0,1.39,.6,1.39,1.48s-.59,1.58-1.55,1.58-1.6-.78-1.6-1.94Zm2.5,.39c0-.6-.34-1.02-.92-1.02-.41,0-.83,.3-.95,.64-.03,.81,.3,1.44,.99,1.44,.52,0,.88-.43,.88-1.06Z"/><path class="cls-1" d="M129.71,67.82l.12-.5c.26,.12,.65,.24,1.06,.24,.65,0,1.05-.41,1.05-.96,0-.62-.44-.95-1.34-.95-.25,0-.44,.01-.62,.03h0l.21-2.23h2.27l-.04,.54h-1.74l-.13,1.19c.13-.02,.26-.03,.39-.03,.97,0,1.65,.5,1.65,1.4s-.69,1.52-1.7,1.52c-.48,0-.92-.11-1.18-.25Z"/><path class="cls-1" d="M134.56,64.04h-.01l-.79,.41-.17-.46,1.08-.55h.53v4.57h-.62v-3.96Z"/><path class="cls-1" d="M138.6,64.3l.15-.31h-2.17v-.55h2.85v.43l-1.92,4.12h-.67l1.76-3.7Z"/><path class="cls-1" d="M140.03,66.13c0-1.84,1.21-2.8,2.7-2.77v.51c-1.03,0-1.88,.57-2.04,1.63h.02c.24-.29,.63-.5,1.09-.5,.83,0,1.39,.6,1.39,1.48s-.59,1.58-1.55,1.58-1.6-.78-1.6-1.94Zm2.5,.39c0-.6-.34-1.02-.92-1.02-.41,0-.83,.3-.95,.64-.03,.81,.3,1.44,.99,1.44,.52,0,.88-.43,.88-1.06Z"/></g></g></g></g></svg>