<?xml version="1.0" encoding="UTF-8"?><svg id="Layer_2" xmlns="http://www.w3.org/2000/svg" width="1835.07" height="701.58" viewBox="0 0 1835.07 701.58"><g id="Layer_1-2"><g><g><g><path d="M561.92,464.02c0-58.57,37.79-97.61,93.36-97.61,31.79,0,54.31,13.26,62.57,18.27v37.29h-6.51c-6.76-30.03-29.53-46.8-57.57-46.8-39.05,0-63.82,31.54-63.82,84.1s24.28,86.1,63.82,86.1c15.77,0,32.29-5.51,42.8-14.52v-38.29c0-14.77-5.01-16.77-23.78-18.27v-5.26h68.33v5.26c-16.27,1.5-20.02,3.5-20.02,18.27v43.05c-18.77,13.01-45.8,19.02-69.33,19.02-57.07,0-89.85-36.04-89.85-90.61Z"/><path d="M993.42,546.36v5.26h-72.33v-5.26c18.77-1.5,24.28-5.26,23.78-20.02l-4.5-137.16-63.07,149.92h-9.76l-65.08-148.92-4.76,136.16c-.5,14.77,5.26,18.52,24.03,20.02v5.26h-59.07v-5.26c18.52-1.5,22.78-5.26,23.28-20.02l4.51-131.65c.5-14.77-4.51-18.52-23.03-20.02v-5.26h53.06l58.82,134.41,51.06-120.39c1.75-4.76,3.75-11.01,4-14.02h54.31v5.26c-18.77,1.5-23.78,5.26-23.28,20.02l4.51,131.65c.5,14.77,4.75,18.52,23.53,20.02Z"/><path d="M1155.6,499.81l-4,51.81h-132.9v-5.76l101.87-167.44h-47.05c-18.52,0-32.29,2-38.29,22.53l-5.51,18.52h-6.01v-50.06h128.65v5.76l-102.12,167.44h36.29c35.54,0,47.3-2.25,55.06-22.28l7.76-20.52h6.26Z"/></g><g><path d="M588.41,653.58c0,13.22-11.95,21.25-32.35,21.25h-34.47v-2.22c7.51-.63,9.62-1.48,9.62-7.72v-57.09c0-6.24-2.11-7.08-9.62-7.72v-2.22h35.21c17.66,0,26.54,6.87,26.54,17.97,0,10.47-8.35,15.96-16.81,18.29,12.48,1.37,21.89,7.82,21.89,19.45Zm-35.74-51.91h-10.68v31.61h12.26c11.21,0,17.66-6.77,17.66-16.28s-6.03-15.33-19.24-15.33Zm23.79,52.97c0-10.68-7.08-17.55-20.09-17.55h-14.38v33.09c2.33,.53,7.82,.85,11.1,.85,15.86,0,23.37-5.5,23.37-16.39Z"/><path d="M666.54,670.49v2.11l-15.22,2.96h-1.8l-1.06-12.79h-.42c-3.38,8.14-10.36,13.32-20.41,13.32-12.16,0-18.5-6.66-18.5-20.3v-23.15c0-6.24-2.11-8.88-8.67-9.52v-2.11l16.6-2.85h2.01v36.79c0,10.68,4.76,15.54,12.48,15.54,9.41,0,16.39-8.04,16.39-20.19v-17.66c0-6.24-2.11-8.88-8.67-9.52v-2.11l16.6-2.85h2.01v45.15c0,5.5,1.69,6.87,8.67,7.19Z"/><path d="M679.02,672.71c6.87-.63,8.56-1.59,8.56-7.4v-32.67c0-6.24-2.01-8.88-8.56-9.52v-2.11l16.49-2.85h2.11v47.15c0,5.82,1.9,6.77,8.35,7.4v2.11h-26.96v-2.11Zm6.45-70.2c0-3.59,2.75-6.55,6.66-6.55s6.66,2.43,6.66,6.34c0,3.7-2.75,6.66-6.66,6.66s-6.66-2.54-6.66-6.45Z"/><path d="M718.03,672.71c6.87-.63,8.56-1.59,8.56-7.4v-55.93c0-6.13-2.01-8.78-8.56-9.41v-2.11l16.49-2.86h2.11v70.31c0,5.82,1.9,6.77,8.35,7.4v2.11h-26.96v-2.11Z"/><path d="M817.52,670.49v2.11l-15.23,2.96h-1.8l-1.06-12.58h-.42c-3.38,7.93-10.15,13.11-19.77,13.11-13.11,0-23.26-10.36-23.26-27.7,0-19.35,11.95-30.77,28.33-30.77,5.39,0,10.36,1.27,14.59,3.81v-12.05c0-6.13-2.11-8.78-8.67-9.41v-2.11l16.6-2.86h2.01v68.3c0,5.5,1.69,6.87,8.67,7.19Zm-18.61-20.19v-23.05c-4.02-4.12-9.09-6.03-14.38-6.03-11.1,0-17.87,8.46-17.87,24.95s6.34,24.32,16.18,24.32c9.09,0,16.07-7.93,16.07-20.19Z"/><path d="M878.53,662.88c-5.92,9.3-14.59,13.22-24.11,13.22-15.12,0-26.64-10.04-26.64-28.44s11.1-30.24,28.12-30.24c15.96,0,23.37,10.68,22.41,26.11h-39.86v1.59c0,16.49,7.82,24.63,19.35,24.63,5.18,0,13.11-1.59,17.97-8.46l2.75,1.59Zm-39.75-23.05h29.71c-.11-12.26-5.18-19.03-13.74-19.03-9.3,0-14.7,7.93-15.96,19.03Z"/><path d="M933.82,623.44c0,1.69-.63,3.81-1.9,5.92l-5.07-2.22c-2.01-.85-3.81-1.27-5.71-1.27-6.03,0-10.57,3.59-10.57,10.26v29.18c0,5.82,2.11,6.77,9.52,7.4v2.11h-28.12v-2.11c6.98-.63,8.67-1.59,8.67-7.4v-32.67c0-6.24-2.11-8.88-8.67-9.52v-2.11l16.6-2.85h1.48v10.36h.42c2.96-6.56,9.09-10.68,15.54-10.68,5.18,0,7.82,2.33,7.82,5.6Z"/><path d="M944.5,671.76v-12.79h2.43c2.11,9.41,9.3,13.64,17.23,13.64s13.53-4.02,13.53-10.47c0-4.55-2.96-7.72-11.63-10.68l-4.33-1.59c-8.35-2.85-16.28-6.98-16.28-16.92s7.51-15.54,19.35-15.54c8.99,0,16.18,3.49,17.97,4.33v11.21h-2.43c-2.33-8.25-9.09-12.05-15.96-12.05s-10.78,3.59-10.78,8.99c0,4.86,3.38,7.82,11.74,10.78l4.33,1.48c11.52,4.02,16.18,8.99,16.18,16.92,0,10.57-8.99,17.02-22.42,17.02-9.51,0-16.49-3.17-18.92-4.33Z"/><path d="M1027.81,672.61c7.51-.63,9.62-1.48,9.62-7.72v-57.09c0-6.24-2.11-7.08-9.62-7.72v-2.22h30.13v2.22c-7.61,.63-9.73,1.48-9.73,7.72v57.09c0,6.24,2.12,7.08,9.73,7.72v2.22h-30.13v-2.22Z"/><path d="M1137.88,672.71v2.11h-26.85v-2.11c6.45-.63,8.25-1.59,8.25-7.4v-26.75c0-10.68-4.76-15.54-12.48-15.54-9.73,0-17.23,8.14-17.23,20.19v22.1c0,5.82,1.9,6.77,8.46,7.4v2.11h-27.07v-2.11c6.98-.63,8.67-1.59,8.67-7.4v-32.67c0-6.24-2.12-8.88-8.67-9.52v-2.11l16.6-2.85h1.48v13h.42c3.49-8.35,10.89-13.74,21.25-13.74,12.05,0,18.5,6.77,18.5,20.3v27.59c0,5.82,1.69,6.77,8.67,7.4Z"/><path d="M1148.66,647.65c0-18.19,11.42-30.24,28.02-30.24,12.26,0,19.88,6.13,19.88,12.37,0,3.59-2.43,6.13-6.55,6.45l-1.27-3.59c-3.07-8.35-7.4-11.84-13.43-11.84-10.57,0-15.75,10.78-15.75,23.89,0,16.81,7.93,25.06,19.14,25.06,4.97,0,12.16-1.59,16.92-8.46l2.75,1.59c-5.92,9.2-13.75,13.22-23.15,13.22-14.91,0-26.54-10.04-26.54-28.44Z"/><path d="M1211.04,669.22c0-3.81,2.85-6.98,6.98-6.98s6.98,2.75,6.98,6.87c0,3.81-2.85,6.98-6.98,6.98s-6.98-2.75-6.98-6.87Z"/></g></g><g><path d="M600.35,158.8l7.48-9.64c1.24-1.6,2.47-3.19,3.67-4.84l3.62-4.88,.72,1.01c4.86-4.1,9.72-8.23,14.55-12.39l14.56-12.42c9.7-8.34,19.46-16.61,29.44-24.79,4.95-4.11,10.06-8.1,15.1-12.14,2.52-2.03,5.15-3.96,7.72-5.94,2.6-1.95,5.14-3.97,7.8-5.87,5.29-3.83,10.53-7.71,16.03-11.33,2.73-1.83,5.43-3.7,8.18-5.5l8.41-5.24c22.4-14.02,47.07-25.39,73.02-33.26,12.99-3.82,26.26-6.66,39.63-8.59,13.38-1.84,26.85-2.81,40.28-2.97,13.44-.1,26.84,.68,40.1,2.23,13.27,1.49,26.4,3.82,39.35,6.73,25.91,5.82,51,14.29,75.23,24.4,12.1,5.11,23.96,10.7,35.59,16.61,11.64,5.91,23,12.27,34.2,18.84,22.38,13.17,43.89,27.52,64.85,42.45h0c.21-.33-.28,.45-.23,.37h0v.03l.03,.03,.04,.06,.09,.13,.18,.26,.36,.52,.71,1.04,1.42,2.07,2.84,4.13,5.61,8.29-9.82-1.88-4.91-.91-2.45-.45-1.22-.22-.61-.11-.31-.06-.15-.03h-.08l-.04-.02h-.03c.05-.09-.45,.68-.24,.36h0c-21.97-12.82-44.19-25.04-66.8-36.17-11.3-5.58-22.73-10.8-34.24-15.75-11.51-4.94-23.13-9.52-34.88-13.61-11.73-4.14-23.57-7.9-35.51-11.15-3-.77-5.98-1.59-8.98-2.32-3-.72-6-1.48-9.01-2.15-3-.7-6.01-1.38-9.03-1.99-3.01-.66-6.03-1.22-9.05-1.79-24.16-4.58-48.58-6.94-72.82-6.87-12.12,.04-24.21,.75-36.18,2.24-11.98,1.41-23.81,3.75-35.44,6.75-2.93,.7-5.8,1.59-8.69,2.41-1.45,.39-2.87,.89-4.3,1.37l-4.28,1.44-4.29,1.44-2.15,.72c-.71,.25-1.41,.55-2.12,.82l-8.47,3.31c-2.85,1.04-5.61,2.35-8.39,3.59-2.78,1.26-5.58,2.47-8.35,3.76l-8.25,4.08-4.13,2.04-4.07,2.21c-43.69,23.16-84.2,54.81-128.52,81.39l.72,1.01-5.86,1.87c-1.94,.63-3.91,1.22-5.88,1.8l-11.74,3.47Z"/><path d="M0,269.72c8.35-.67,16.66-1.31,24.89-2.6,2.06-.26,4.11-.58,6.16-.92,2.05-.34,4.1-.64,6.14-1.01,4.07-.79,8.14-1.51,12.18-2.46,16.16-3.52,32-8.21,47.55-13.62,31.1-10.94,61-24.93,90.78-39.6l44.82-22.25c7.51-3.7,15.06-7.41,22.69-10.99,7.62-3.6,15.29-7.14,23.12-10.52,3.9-1.69,7.78-3.46,11.71-5.09l11.87-4.75,5.94-2.37c1.99-.77,4-1.48,6.01-2.22l12.04-4.4c2-.76,4.04-1.41,6.07-2.07l6.1-1.98,6.11-1.98c2.03-.67,4.07-1.33,6.14-1.9l12.36-3.56c2.07-.57,4.11-1.23,6.2-1.74l6.25-1.57,12.52-3.08,12.64-2.61,6.33-1.27c2.11-.43,4.25-.72,6.37-1.08l12.77-2.04c2.12-.37,4.27-.59,6.42-.84l6.43-.75,6.43-.72,3.22-.35c1.07-.1,2.15-.16,3.23-.24,8.63-.56,17.23-1.31,25.89-1.33,4.32-.08,8.65-.16,12.97-.19l12.97,.39,6.48,.23c2.16,.1,4.31,.32,6.47,.48l12.93,1.03c2.16,.13,4.3,.44,6.44,.71l6.43,.85,6.42,.85,3.21,.43c1.07,.15,2.13,.37,3.19,.55l12.74,2.28c2.12,.4,4.25,.72,6.36,1.19l6.31,1.43,12.6,2.87c4.16,1.03,8.26,2.15,12.39,3.22l12.27,3.44,12.17,3.6c16.16,4.93,32.13,10.02,48.01,15.08l11.89,3.78c3.95,1.3,7.84,2.78,11.69,4.4,7.7,3.24,15.39,6.49,23.14,9.58,7.75,3.08,15.53,6.12,23.39,9.03l11.84,4.25,11.97,4.05c-4.21-.08-8.45-.17-12.68-.33-4.22-.22-8.46-.42-12.69-.75-4.21-.36-8.47-.64-12.68-1.08-2.11-.2-4.22-.43-6.33-.66-2.12-.22-4.22-.47-6.32-.74-4.21-.53-8.44-1.03-12.63-1.62-4.2-.57-8.42-1.13-12.59-1.8-4.19-.63-8.33-1.43-12.4-2.46-4.07-1.03-8.11-2.13-12.15-3.2-16.16-4.3-32.2-8.7-48.25-12.55l-12.02-2.83-12.02-2.64c-4.01-.79-8.01-1.64-12.01-2.38l-11.96-1.99-5.97-1c-1.99-.33-4.01-.5-6.01-.76l-12.02-1.43c-1-.11-2-.26-3-.34l-3.02-.22-6.03-.44-6.03-.44c-2.01-.14-4.01-.36-6.02-.39l-12.07-.42c-2.01-.06-4.02-.17-6.03-.18l-6.04,.06-12.06,.06-12.06,.53c-4.02,.17-8.04,.27-12.05,.68l-12.04,.95c-1,.08-2.01,.14-3.01,.24l-3,.36-6,.7-6.01,.68c-2,.23-4.01,.42-6,.76l-11.97,1.79c-1.99,.31-4,.54-5.98,.92l-5.96,1.11-11.94,2.15-11.87,2.58c-31.7,6.78-62.89,16.55-93.53,28.09-30.71,11.5-61.25,25.03-92.44,37.47-31.19,12.45-63.13,24.08-96.17,31.85-16.53,3.79-33.26,6.78-50.12,8.16-4.2,.41-8.43,.59-12.64,.85-2.11,.1-4.22,.13-6.32,.2-2.11,.06-4.21,.13-6.32,.09l-6.31-.07-6.3-.26c-4.19-.1-8.38-.58-12.54-.89Z"/><path d="M1016.06,204.16c.98-3.04,2.33-5.43,3.77-7.66,1.45-2.21,3.03-4.18,4.73-5.94,1.7-1.76,3.51-3.34,5.41-4.74,1.89-1.42,3.92-2.6,5.93-3.82,8.03-4.88,16.09-9.74,24.18-14.56,16.17-9.67,32.55-19.13,49.23-28.17,8.33-4.55,16.77-8.94,25.26-13.26,4.27-2.12,8.56-4.21,12.86-6.28,4.34-2.01,8.63-4.11,13.01-6.04,17.43-7.94,35.34-15.06,53.71-21.16,9.2-3.01,18.48-5.86,27.92-8.24,2.36-.6,4.7-1.24,7.07-1.8l7.13-1.62,3.57-.8,3.59-.71,7.19-1.4c19.23-3.55,38.84-5.48,58.51-5.85,9.84-.19,19.68,.18,29.51,.78,2.46,.14,4.9,.42,7.35,.62,2.46,.23,4.87,.41,7.37,.69l7.58,.98c2.52,.37,5.04,.85,7.55,1.29,20.05,3.87,39.44,10.64,57.34,19.61,17.9,9,34.51,19.84,49.97,31.62,15.44,11.84,29.94,24.43,43.88,37.31,13.93,12.89,27.46,25.9,40.96,38.7l10.17,9.51,5.14,4.7,4.99,4.43c6.66,5.8,13.66,11.17,21.04,16.05,7.4,4.83,15.14,9.2,23.17,13.06,8.03,3.86,16.36,7.19,24.88,10.1,8.54,2.89,17.3,5.22,26.19,7.22,8.89,2,17.93,3.57,27.05,4.82,18.25,2.53,36.83,3.65,55.51,4.31,9.34,.33,18.71,.44,28.09,.5,9.39,.15,18.78,.1,28.19,.21-9.3,1.44-18.61,2.68-27.94,3.92-9.34,1.15-18.7,2.19-28.11,3.05-18.81,1.7-37.79,2.53-56.91,1.86-19.11-.74-38.37-2.99-57.34-7.65-9.48-2.33-18.85-5.31-28.02-8.89-9.17-3.59-18.18-7.77-26.81-12.67-8.62-4.91-16.92-10.43-24.82-16.45-1.94-1.51-3.94-3.07-5.81-4.58l-5.5-4.5-10.91-9.11c-14.49-12.16-28.5-24.6-42.7-36.52-7.11-5.94-14.16-11.88-21.34-17.56-7.17-5.69-14.42-11.18-21.79-16.4-14.66-10.53-29.88-19.84-45.69-27.29-15.75-7.57-32.22-12.95-49.03-15.93-2.11-.32-4.21-.73-6.32-1.03l-6.37-.8c-2.17-.24-4.43-.4-6.64-.6-2.22-.18-4.44-.43-6.66-.55-8.89-.51-17.8-.83-26.71-.62l-6.68,.09-6.68,.32c-4.46,.14-8.91,.58-13.36,.92-1.11,.09-2.23,.15-3.34,.27l-3.33,.37-6.67,.73c-2.22,.27-4.44,.62-6.66,.93-2.22,.34-4.45,.57-6.66,.97l-6.64,1.12-3.32,.57-3.31,.66-6.62,1.31c-2.21,.45-4.4,.97-6.61,1.45-2.2,.51-4.41,.94-6.6,1.51l-6.58,1.65-3.29,.82-3.28,.89-6.56,1.78c-4.36,1.27-8.72,2.55-13.07,3.9-4.33,1.42-8.69,2.73-12.99,4.27-4.32,1.48-8.64,2.97-12.94,4.54-4.32,1.52-8.6,3.16-12.89,4.8-4.3,1.6-8.54,3.39-12.82,5.07-4.26,1.76-8.51,3.53-12.75,5.34-8.49,3.63-16.96,7.34-25.38,11.23-8.44,3.84-16.82,7.87-25.2,11.91-8.38,4.06-16.74,8.19-25.09,12.38-8.35,4.2-16.68,8.43-25.02,12.71-2.09,1.07-4.15,2.17-6.34,3.04-2.19,.89-4.47,1.6-6.86,2.14-2.38,.54-4.9,.85-7.53,.94-2.65,.06-5.39-.03-8.5-.78Z"/><path d="M307.91,334.43c12.57-1.18,25.03-2.77,37.35-5,12.31-2.32,24.47-5.16,36.49-8.45,11.99-3.44,23.85-7.19,35.56-11.41,11.69-4.29,23.27-8.81,34.72-13.71,45.82-19.56,89.83-43.4,134.99-66.09,22.6-11.31,45.46-22.45,69.03-32.43,5.86-2.56,11.83-4.93,17.76-7.36,5.99-2.33,11.97-4.68,18.05-6.83,12.12-4.37,24.35-8.43,36.73-12.05,24.71-7.35,49.93-12.95,75.36-17.29,25.46-4.16,51.16-6.81,76.96-8,12.94-.52,26.04-.62,39.3,.12,13.25,.75,26.64,2.3,39.95,5.19,6.66,1.47,13.24,3.31,19.69,5.35,6.43,2.1,12.73,4.43,18.9,6.96,12.31,5.11,24.12,10.89,35.45,17.11,11.36,6.19,22.34,12.66,33.18,19.02l32.47,19.14c10.81,6.38,21.65,12.64,32.49,18.91,10.83,6.27,21.7,12.45,32.62,18.51,43.64,24.26,88.14,46.76,134.6,64.64,2.91,1.1,5.8,2.27,8.72,3.32l8.78,3.18c2.92,1.07,5.89,2.01,8.83,3.03,2.95,1,5.9,2.01,8.87,2.93,11.83,3.92,23.86,7.2,35.94,10.35l9.1,2.23,9.15,2.03,4.59,1.01,4.61,.89c3.07,.58,6.14,1.23,9.23,1.75,12.34,2.24,24.8,3.88,37.34,5.33-12.6,.45-25.27,.35-37.92-.36-12.64-.82-25.31-1.96-37.88-3.85-25.17-3.62-50.1-9.27-74.55-16.44-48.97-14.35-95.97-34.6-141.47-57-11.37-5.63-22.66-11.38-33.9-17.21-11.21-5.87-22.36-11.84-33.46-17.84-11.1-6-22.19-12.02-33.19-18.14-11.03-6.1-21.9-12.12-32.79-17.69-5.45-2.8-10.9-5.43-16.35-8.01-5.46-2.54-10.94-4.89-16.44-7.09-5.51-2.15-11.05-4.1-16.61-5.82-5.58-1.65-11.15-3.12-16.8-4.28-11.31-2.35-23-3.69-34.87-4.3-11.88-.61-23.97-.44-36.17,.08-12.23,.55-24.49,1.3-36.69,2.55-12.21,1.21-24.37,2.79-36.5,4.62-12.13,1.87-24.2,4.07-36.21,6.59-12.01,2.52-23.93,5.49-35.8,8.62-11.87,3.14-23.63,6.71-35.29,10.58-5.84,1.89-11.63,4.01-17.45,6.01-5.79,2.14-11.6,4.2-17.36,6.48-5.78,2.19-11.53,4.53-17.29,6.84-5.74,2.37-11.48,4.74-17.23,7.17-11.49,4.81-22.94,9.84-34.4,14.91-45.86,20.22-91.95,41.65-140.33,57.78-12.11,3.97-24.31,7.66-36.64,10.9-12.36,3.14-24.82,5.89-37.37,8.05-12.57,2.1-25.22,3.56-37.88,4.44-12.68,.72-25.35,.78-37.95,.06Z"/></g></g></g></svg>