<?xml version="1.0" encoding="UTF-8"?><svg id="Layer_2" xmlns="http://www.w3.org/2000/svg" width="242.16" height="149.28" xmlns:xlink="http://www.w3.org/1999/xlink" viewBox="0 0 242.16 149.28"><defs><style>.cls-1{filter:url(#drop-shadow-7);}.cls-2{fill:none;filter:url(#drop-shadow-3);stroke-miterlimit:10;}.cls-2,.cls-3{stroke:#231f20;}.cls-3{stroke-linecap:round;stroke-linejoin:round;}.cls-3,.cls-4{fill:#231f20;}.cls-5{filter:url(#drop-shadow-5);}.cls-6{filter:url(#drop-shadow-2);}.cls-7{filter:url(#drop-shadow-9);}</style><filter id="drop-shadow-2" filterUnits="userSpaceOnUse"><feOffset dx="1.8" dy="3.6"/><feGaussianBlur result="blur" stdDeviation="3.6"/><feFlood flood-color="#000" flood-opacity=".75"/><feComposite in2="blur" operator="in"/><feComposite in="SourceGraphic"/></filter><filter id="drop-shadow-3" filterUnits="userSpaceOnUse"><feOffset dx="1.8" dy="3.6"/><feGaussianBlur result="blur-2" stdDeviation="3.6"/><feFlood flood-color="#000" flood-opacity=".75"/><feComposite in2="blur-2" operator="in"/><feComposite in="SourceGraphic"/></filter><filter id="drop-shadow-5" filterUnits="userSpaceOnUse"><feOffset dx="1.8" dy="3.6"/><feGaussianBlur result="blur-3" stdDeviation="3.6"/><feFlood flood-color="#000" flood-opacity=".75"/><feComposite in2="blur-3" operator="in"/><feComposite in="SourceGraphic"/></filter><filter id="drop-shadow-7" filterUnits="userSpaceOnUse"><feOffset dx="1.8" dy="3.6"/><feGaussianBlur result="blur-4" stdDeviation="3.6"/><feFlood flood-color="#000" flood-opacity=".75"/><feComposite in2="blur-4" operator="in"/><feComposite in="SourceGraphic"/></filter><filter id="drop-shadow-9" filterUnits="userSpaceOnUse"><feOffset dx="1.8" dy="3.6"/><feGaussianBlur result="blur-5" stdDeviation="3.6"/><feFlood flood-color="#000" flood-opacity=".75"/><feComposite in2="blur-5" operator="in"/><feComposite in="SourceGraphic"/></filter></defs><g id="Layer_1-2"><g><g id="sub_text_1" class="cls-6"><path class="cls-4" d="M36.71,107.27c0,3.48-2.04,5.55-5.44,5.55h-3.72v-11.09h2.99c3.75,0,6.16,2.05,6.16,5.54Zm-.71,0c0-3.19-2.13-4.98-5.45-4.98h-2.28v9.97h2.99c2.97,0,4.74-1.87,4.74-4.99Z"/><path class="cls-4" d="M41.7,102.9c-.35,0-.65-.25-.65-.58s.3-.59,.65-.59,.65,.27,.65,.59-.3,.58-.65,.58Zm-.37,2.02l.67-.02v7.91h-.67v-7.9Z"/><path class="cls-4" d="M54.53,107.98v4.84h-.67v-4.84c0-1.53-1.06-2.6-2.76-2.6-2.15,0-3.32,1.71-3.32,2.97v4.47h-.65v-7.9l.47-.02c.07,.71,.11,1.53,.11,2.17h.02c.43-1.19,1.66-2.22,3.47-2.22,2.07,0,3.34,1.29,3.34,3.12Z"/><path class="cls-4" d="M66.91,107.98v4.84h-.67v-4.84c0-1.53-1.06-2.6-2.76-2.6-2.15,0-3.32,1.71-3.32,2.97v4.47h-.65v-7.9l.47-.02c.07,.71,.11,1.53,.11,2.17h.02c.43-1.19,1.66-2.22,3.47-2.22,2.07,0,3.34,1.29,3.34,3.12Z"/><path class="cls-4" d="M78.87,108.34c0,.37-.04,.58-.04,.58h-6.87c.02,2.07,1.4,3.45,3.59,3.45,1.2,0,2.09-.39,2.67-1l.45,.36c-.78,.83-1.9,1.19-3.14,1.19-2.61,0-4.24-1.61-4.24-4.01s1.74-4.04,4.02-4.04c2.11,0,3.57,1.36,3.57,3.48Zm-6.89,.08h6.22v-.14c0-1.83-1.18-2.9-2.9-2.9s-3.14,1.15-3.32,3.04Z"/><path class="cls-4" d="M87.33,104.96l-.15,.59c-.09-.03-.41-.12-.73-.12-1.61,0-2.48,1.88-2.48,2.99v4.4h-.65v-7.9l.47-.02c.07,.71,.11,1.53,.11,2.17h.02c.32-1.12,1.2-2.22,2.56-2.22,.37,0,.73,.07,.86,.1Z"/><path class="cls-4" d="M104.49,112.82s-.26,.07-.52,.07c-.62,0-1.1-.29-1.1-1.05v-.76h-.02c-.37,.78-1.42,1.83-3.51,1.83-1.79,0-2.78-.78-2.78-2.02,0-1.82,2.19-2.33,5.49-2.41l.8-.02v-.73c0-1.41-1.05-2.34-2.76-2.34-1.57,0-2.65,.76-2.65,1.94,0,.29,.07,.48,.09,.51l-.63,.1s-.11-.27-.11-.66c0-1.43,1.36-2.41,3.32-2.41,2.11,0,3.42,1.12,3.42,2.87v3.96c0,.48,.22,.66,.62,.66,.11,0,.22-.02,.3-.03l.06,.51Zm-1.64-2.62v-1.27l-.8,.03c-2.88,.05-4.82,.46-4.82,1.9,0,.9,.77,1.49,2.24,1.49,2.58,0,3.38-1.87,3.38-2.16Z"/><path class="cls-4" d="M116.09,107.98v4.84h-.67v-4.84c0-1.53-1.06-2.6-2.76-2.6-2.15,0-3.32,1.71-3.32,2.97v4.47h-.65v-7.9l.47-.02c.07,.71,.11,1.53,.11,2.17h.02c.43-1.19,1.66-2.22,3.47-2.22,2.07,0,3.34,1.29,3.34,3.12Z"/><path class="cls-4" d="M128.6,100.9v11.91l-.5,.03c-.06-.7-.09-1.53-.09-2.17h-.02c-.41,1.22-1.62,2.23-3.51,2.23-2.39,0-4.01-1.61-4.01-4.03s1.62-4.03,4.05-4.03c1.72,0,2.93,.87,3.42,2v-5.94h.67Zm-.67,8.49v-1.07c0-1.26-1.16-2.94-3.4-2.94-2.04,0-3.4,1.39-3.4,3.48s1.36,3.48,3.42,3.48c2.28,0,3.38-1.71,3.38-2.96Z"/><path class="cls-4" d="M149.67,107.27c0,3.48-2.04,5.55-5.43,5.55h-3.72v-11.09h2.99c3.75,0,6.16,2.05,6.16,5.54Zm-.71,0c0-3.19-2.13-4.98-5.45-4.98h-2.28v9.97h2.99c2.97,0,4.74-1.87,4.74-4.99Z"/><path class="cls-4" d="M161.25,108.34c0,.37-.04,.58-.04,.58h-6.87c.02,2.07,1.4,3.45,3.59,3.45,1.2,0,2.09-.39,2.67-1l.45,.36c-.78,.83-1.9,1.19-3.14,1.19-2.61,0-4.24-1.61-4.24-4.01s1.74-4.04,4.02-4.04c2.11,0,3.57,1.36,3.57,3.48Zm-6.89,.08h6.22v-.14c0-1.83-1.18-2.9-2.89-2.9s-3.14,1.15-3.32,3.04Z"/><path class="cls-4" d="M170.66,107.03c0-1.05-1.03-1.65-2.39-1.65-1.44,0-2.33,.63-2.33,1.56,0,2.29,5.57,.93,5.58,3.82,0,1.31-1.23,2.14-3.23,2.14-2.2,0-3.23-1-3.42-1.16l.47-.39c.11,.1,1.08,1,2.95,1,1.61,0,2.56-.61,2.56-1.58,0-2.29-5.58-1.05-5.58-3.84,0-1.22,1.18-2.09,3.01-2.09,1.72,0,3.03,.76,3.03,2.05,0,.25-.06,.48-.06,.48l-.64,.05s.06-.2,.06-.41Z"/><path class="cls-4" d="M180.95,107.03c0-1.05-1.03-1.65-2.39-1.65-1.44,0-2.33,.63-2.33,1.56,0,2.29,5.57,.93,5.58,3.82,0,1.31-1.23,2.14-3.23,2.14-2.2,0-3.23-1-3.42-1.16l.47-.39c.11,.1,1.08,1,2.95,1,1.61,0,2.56-.61,2.56-1.58,0-2.29-5.58-1.05-5.58-3.84,0-1.22,1.18-2.09,3.01-2.09,1.72,0,3.03,.76,3.03,2.05,0,.25-.06,.48-.06,.48l-.63,.05s.06-.2,.06-.41Z"/><path class="cls-4" d="M193.26,108.34c0,.37-.04,.58-.04,.58h-6.87c.02,2.07,1.4,3.45,3.59,3.45,1.2,0,2.09-.39,2.67-1l.45,.36c-.78,.83-1.9,1.19-3.14,1.19-2.61,0-4.24-1.61-4.24-4.01s1.74-4.04,4.02-4.04c2.11,0,3.57,1.36,3.57,3.48Zm-6.89,.08h6.22v-.14c0-1.83-1.18-2.9-2.89-2.9s-3.14,1.15-3.32,3.04Z"/><path class="cls-4" d="M201.72,104.96l-.15,.59c-.09-.03-.41-.12-.73-.12-1.61,0-2.48,1.88-2.48,2.99v4.4h-.65v-7.9l.47-.02c.07,.71,.11,1.53,.11,2.17h.02c.32-1.12,1.2-2.22,2.56-2.22,.37,0,.73,.07,.86,.1Z"/><path class="cls-4" d="M210.65,112.33s-.82,.58-2.09,.58c-1.83,0-2.61-.87-2.61-2.62v-4.84h-1.48v-.53h1.48v-2.43l.67-.05v2.48h3.64v.53h-3.64v4.84c0,1.36,.56,2.09,1.98,2.09,1.08,0,1.79-.54,1.79-.54l.26,.49Z"/></g><line id="line_1" class="cls-2" x1="9.02" y1="93.97" x2="229.36" y2="93.97"/><g class="cls-5"><path class="cls-4" d="M106.25,76.22c0-2.7,2.18-4.88,4.92-5.61-.58-.63-.93-1.6-.93-2.35,0-2.89,2.76-5.11,5.78-5.11,1.6,0,2.81,.75,3.02,1.7-.28-.6-1.45-1.1-2.57-1.1-2.65,0-5.42,2.2-5.42,5.2,0,.52,.09,1.21,.28,1.62,.58-.13,1.19-.22,1.81-.22,1.4,0,2.09,.5,2.09,1.1,0,.28-.15,.56-.22,.62,.02-.09,.02-.15,.02-.22,0-.43-.63-.78-1.88-.78-3.26,0-6.69,3.02-6.69,6.15,0,.26,.02,.5,.06,.75-.17-.45-.3-1.1-.3-1.77Zm13.83-3.95c1.27,0,2.09,.86,2.09,2.44,0,3.71-4.25,6.8-9,6.8-3.02,0-6.19-1.6-6.19-4.31,0-.26,.02-.47,.06-.65,0,1.58,2.4,3.86,6.08,3.86,4.75,0,8.44-3.13,8.44-6.28,0-1.32-.95-1.83-1.86-1.83,.13-.02,.26-.02,.37-.02Zm-6.08-.24c.35,0,.58-.09,.82-.26v.11c0,.41-.35,.58-.76,.58-.52,0-1.34-.41-1.79-.91,.41,.24,1.12,.47,1.73,.47Zm5.05-6.28c0,1.64-1.88,2.33-2.81,2.33-.32,0-.52-.04-.67-.09,1.32-.09,2.83-1.1,2.83-2.57,0-.35-.17-.63-.39-.76,.56,.09,1.04,.43,1.04,1.08Zm-.71,9.69c-.39-.47-.58-.97-.58-1.6,0-1.62,1.19-2.87,4.04-4.36,3.84-2.01,6.08-3.21,6.08-5.05,0-.24-.04-.47-.15-.69,.3,.39,.43,.8,.43,1.36,0,1.88-1.62,3.02-6.02,5.22-2.01,.99-3.91,2.42-3.91,4.4,0,.34,.04,.56,.11,.71Z"/></g><g class="cls-1"><path class="cls-3" d="M45.66,54.34c3.43-15.02,14.37-22.01,21.95-22.01s9.97,4.47,9.97,9.91c0,11.59-13.6,29.2-30.95,29.2-12.11,0-17.55-7.19-17.55-16.38,0-16.32,17.16-39.04,44.67-39.04,14.89,0,24.28,6.73,28.88,15.99,4.92-4.92,10.62-8.68,17.74-10.23l.06,.32c-7.12,1.49-12.82,5.31-17.55,10.49,2.07,4.34,3.04,9.26,3.04,14.31,0,18.84-13.6,39.36-36.45,39.36-4.4,0-8.81-.84-13.14-1.81-5.31,1.49-11.46,2.33-18.78,2.33s-10.55-1.94-10.55-3.75c0-1.42,2.4-2.78,7.32-2.78,7.19,0,14.24,2.07,21.37,3.75,12.82-3.95,19.75-12.56,27.19-24.08,6.15-9.45,11.85-20.01,19.49-27.71-4.47-9.13-13.73-15.8-28.49-15.8-24.34,0-43.51,24.28-43.51,40.46,0,8.16,5.11,14.24,16.25,14.24,17.03,0,30.62-17.54,30.62-28.94,0-5.24-2.59-9.52-9.65-9.52-7.51,0-18.13,6.99-21.62,21.69h-.32Zm9.52,29.85c-6.93-1.62-13.85-3.63-20.85-3.63-4.73,0-6.99,1.17-6.99,2.46,0,1.62,3.5,3.43,10.23,3.43s12.69-.84,17.61-2.27Zm47.46-51.34l-.32,.39c-5.76,6.54-10.04,16.9-16.96,27.84-6.47,10.17-14.24,19.03-28.49,23.18,4.08,.91,8.22,1.68,12.56,1.68,22.66,0,36.19-20.33,36.19-39.04,0-4.92-.97-9.78-2.98-14.05Z"/></g><g class="cls-7"><path class="cls-3" d="M149.26,54.34c3.43-15.02,14.37-22.01,21.95-22.01s9.97,4.47,9.97,9.91c0,11.59-13.6,29.2-30.95,29.2-12.11,0-17.54-7.19-17.54-16.38,0-16.32,17.16-39.04,44.67-39.04,14.89,0,24.28,6.73,28.88,15.99,4.92-4.92,10.62-8.68,17.74-10.23l.06,.32c-7.12,1.49-12.82,5.31-17.55,10.49,2.07,4.34,3.04,9.26,3.04,14.31,0,18.84-13.6,39.36-36.45,39.36-4.4,0-8.8-.84-13.14-1.81-5.31,1.49-11.46,2.33-18.78,2.33s-10.55-1.94-10.55-3.75c0-1.42,2.39-2.78,7.32-2.78,7.19,0,14.24,2.07,21.37,3.75,12.82-3.95,19.75-12.56,27.19-24.08,6.15-9.45,11.85-20.01,19.49-27.71-4.47-9.13-13.73-15.8-28.49-15.8-24.34,0-43.51,24.28-43.51,40.46,0,8.16,5.11,14.24,16.25,14.24,17.03,0,30.62-17.54,30.62-28.94,0-5.24-2.59-9.52-9.65-9.52-7.51,0-18.13,6.99-21.62,21.69h-.32Zm9.52,29.85c-6.93-1.62-13.86-3.63-20.85-3.63-4.73,0-6.99,1.17-6.99,2.46,0,1.62,3.5,3.43,10.23,3.43s12.69-.84,17.61-2.27Zm47.46-51.34l-.32,.39c-5.76,6.54-10.04,16.9-16.96,27.84-6.47,10.17-14.24,19.03-28.49,23.18,4.08,.91,8.22,1.68,12.56,1.68,22.66,0,36.19-20.33,36.19-39.04,0-4.92-.97-9.78-2.98-14.05Z"/></g></g></g></svg>